<?xml version="1.0" standalone="no"?>
<svg xmlns="http://www.w3.org/2000/svg" viewBox="0 0 103 74" width="103" height="74"><g fill="#ead017" color="#ead017" transform="translate(29.204 0) scale(0.44) "><svg width="100.0" height="100.0" x="0.0" y="0.0" viewBox="0 0 100 100"><g><path fill="none" d="M93.02,15.996H6.036V65.02v0.002H93.02h0.002V65.02V15.996H93.02z M42.972,41.031h4.169v1.462h-4.169V41.031z    M34.397,38.622h4.169v1.462h-4.169V38.622z M41.972,41.031v1.462h-23.71v-1.462H41.972z M33.398,40.084L33.398,40.084H18.262   v-1.463h15.136V40.084z M13.066,21.332h4.169v1.462h-4.169V21.332z M13.066,23.794h10.391v1.463H13.066V23.794z M13.066,26.257   h13.855v1.462H13.066V26.257z M13.066,28.719h10.391v1.463H13.066V28.719z M13.066,31.182h10.391v1.462H13.066V31.182z    M13.066,33.644h4.169v1.463h-4.169V33.644z M13.066,36.106h6.97v1.462h-6.97V36.106z M13.066,38.621h4.169v1.463h-4.169V38.621z    M13.066,41.031h4.169v1.462h-4.169V41.031z M13.066,43.493h4.169v1.463h-4.169V43.493z M13.066,45.956H46.28v1.462H13.066V45.956z    M13.066,48.418h4.169v1.463h-4.169V48.418z M13.066,50.881h20.331v1.463H13.066V50.881z M10.802,21.332L10.802,21.332h1.264v1.462   h-1.263h-0.001V21.332z M12.067,59.73L12.067,59.73h-1.264h-0.001v-1.463h0.001h1.263h0.001V59.73z M12.067,57.268L12.067,57.268   h-1.264h-0.001v-1.461h0.001h1.263h0.001V57.268z M12.067,54.807L12.067,54.807h-1.264h-0.001v-1.464h0.001h1.263h0.001V54.807z    M12.067,52.344L12.067,52.344h-1.264h-0.001v-1.463h0.001h1.263h0.001V52.344z M12.067,49.881L12.067,49.881h-1.264h-0.001v-1.463   h0.001h1.263h0.001V49.881z M12.067,47.418L12.067,47.418h-1.264h-0.001v-1.462h0.001h1.263h0.001V47.418z M12.067,44.956   L12.067,44.956h-1.264h-0.001v-1.463h0.001h1.263h0.001V44.956z M12.067,42.493L12.067,42.493h-1.264h-0.001v-1.462h0.001h1.263   h0.001V42.493z M12.067,40.031L12.067,40.031h-1.264h-0.001v-1.463h0.001h1.263h0.001V40.031z M12.067,37.568L12.067,37.568h-1.264   h-0.001v-1.462h0.001h1.263h0.001V37.568z M12.067,35.107h-1.264v-0.001h-0.001v-1.463h1.264v0.001h0.001V35.107z M12.067,32.644   L12.067,32.644h-1.264h-0.001v-1.462h0.001h1.263h0.001V32.644z M12.067,30.182L12.067,30.182h-1.264h-0.001v-1.463h0.001h1.263   h0.001V30.182z M12.067,27.719L12.067,27.719h-1.264h-0.001v-1.462h0.001h1.263h0.001V27.719z M12.067,25.257L12.067,25.257h-1.264   h-0.001v-1.463h0.001h1.263h0.001V25.257z M20.036,59.73h-6.97v-1.463h6.97V59.73z M21.592,57.268L21.592,57.268h-8.525h-0.001   v-1.461h0.001h8.524h0.001V57.268z M30.117,54.807H13.066v-1.464h17.051V54.807z M35.356,54.807L35.356,54.807h-4.169h-0.001   v-1.463h0.001h4.168h0.001V54.807z M46.281,49.881L46.281,49.881H18.262v-1.463H46.28h0.001V49.881z M51.439,44.956H18.262v-1.463   h33.177V44.956z M56.607,44.956h-4.168v-1.463h4.168V44.956z"></path><circle fill="none" cx="49.528" cy="72.829" r="1.847"></circle><polygon points="12.066,33.643 10.802,33.643 10.802,35.106 10.803,35.106 10.803,35.107 12.067,35.107 12.067,33.644    12.066,33.644  "></polygon><polygon points="31.187,53.344 31.186,53.344 31.186,54.807 31.187,54.807 35.355,54.807 35.356,54.807 35.356,53.344    35.355,53.344  "></polygon><rect x="42.972" y="41.031" width="4.169" height="1.462"></rect><rect x="34.397" y="38.622" width="4.169" height="1.462"></rect><rect x="13.066" y="21.332" width="4.169" height="1.462"></rect><rect x="13.066" y="33.644" width="4.169" height="1.463"></rect><rect x="13.066" y="38.621" width="4.169" height="1.463"></rect><rect x="13.066" y="41.031" width="4.169" height="1.462"></rect><rect x="13.066" y="36.106" width="6.97" height="1.462"></rect><polygon points="18.262,40.084 33.397,40.084 33.398,40.084 33.398,38.621 18.262,38.621  "></polygon><rect x="18.262" y="41.031" width="23.71" height="1.462"></rect><rect x="13.066" y="43.493" width="4.169" height="1.463"></rect><rect x="13.066" y="48.418" width="4.169" height="1.463"></rect><rect x="52.439" y="43.493" width="4.168" height="1.463"></rect><rect x="18.262" y="43.493" width="33.177" height="1.463"></rect><rect x="13.066" y="45.956" width="33.214" height="1.462"></rect><polygon points="18.262,48.418 18.262,49.881 46.28,49.881 46.281,49.881 46.281,48.418 46.28,48.418  "></polygon><rect x="13.066" y="50.881" width="20.331" height="1.463"></rect><rect x="13.066" y="53.343" width="17.051" height="1.464"></rect><polygon points="13.067,55.807 13.066,55.807 13.066,57.268 13.067,57.268 21.591,57.268 21.592,57.268 21.592,55.807    21.591,55.807  "></polygon><rect x="13.066" y="58.268" width="6.97" height="1.463"></rect><rect x="13.066" y="23.794" width="10.391" height="1.463"></rect><rect x="13.066" y="26.257" width="13.855" height="1.462"></rect><rect x="13.066" y="28.719" width="10.391" height="1.463"></rect><rect x="13.066" y="31.182" width="10.391" height="1.462"></rect><polygon points="12.066,22.794 12.066,21.332 10.803,21.332 10.802,21.332 10.802,22.794 10.803,22.794  "></polygon><polygon points="10.803,23.794 10.802,23.794 10.802,25.257 10.803,25.257 12.066,25.257 12.067,25.257 12.067,23.794    12.066,23.794  "></polygon><polygon points="10.803,26.257 10.802,26.257 10.802,27.719 10.803,27.719 12.066,27.719 12.067,27.719 12.067,26.257    12.066,26.257  "></polygon><polygon points="10.803,28.719 10.802,28.719 10.802,30.182 10.803,30.182 12.066,30.182 12.067,30.182 12.067,28.719    12.066,28.719  "></polygon><polygon points="10.803,31.182 10.802,31.182 10.802,32.644 10.803,32.644 12.066,32.644 12.067,32.644 12.067,31.182    12.066,31.182  "></polygon><polygon points="10.803,36.106 10.802,36.106 10.802,37.568 10.803,37.568 12.066,37.568 12.067,37.568 12.067,36.106    12.066,36.106  "></polygon><polygon points="10.803,38.568 10.802,38.568 10.802,40.031 10.803,40.031 12.066,40.031 12.067,40.031 12.067,38.568    12.066,38.568  "></polygon><polygon points="10.803,41.031 10.802,41.031 10.802,42.493 10.803,42.493 12.066,42.493 12.067,42.493 12.067,41.031    12.066,41.031  "></polygon><polygon points="10.803,43.493 10.802,43.493 10.802,44.956 10.803,44.956 12.066,44.956 12.067,44.956 12.067,43.493    12.066,43.493  "></polygon><polygon points="10.803,45.956 10.802,45.956 10.802,47.418 10.803,47.418 12.066,47.418 12.067,47.418 12.067,45.956    12.066,45.956  "></polygon><polygon points="10.803,48.418 10.802,48.418 10.802,49.881 10.803,49.881 12.066,49.881 12.067,49.881 12.067,48.418    12.066,48.418  "></polygon><polygon points="10.803,50.881 10.802,50.881 10.802,52.344 10.803,52.344 12.066,52.344 12.067,52.344 12.067,50.881    12.066,50.881  "></polygon><polygon points="10.803,53.343 10.802,53.343 10.802,54.807 10.803,54.807 12.066,54.807 12.067,54.807 12.067,53.343    12.066,53.343  "></polygon><polygon points="10.803,55.807 10.802,55.807 10.802,57.268 10.803,57.268 12.066,57.268 12.067,57.268 12.067,55.807    12.066,55.807  "></polygon><polygon points="10.803,58.268 10.802,58.268 10.802,59.73 10.803,59.73 12.066,59.73 12.067,59.73 12.067,58.268 12.066,58.268     "></polygon><path d="M94.195,12.179h-43.88H48.82H4.939c-1.563,0-2.91,1.189-2.91,2.752v54.092v0.189v5.012v0.314   c0,1.563,1.347,2.877,2.91,2.877h35.146c-0.041,0.896-0.321,4.753-2.155,6.623c-1.445,1.473-3.453,2.854-2.669,3.563   c0.19,0.436,1.091,0.688,3.14,0.688c4.521,0,9.416,0,11.208,0c0.453,0,0.707,0,0.707,0c1.792,0,6.688,0,11.208,0   c2.334,0,3.149-0.382,3.158-0.953h-0.08v-0.188H64.52c-0.104-0.77-1.662-1.907-2.84-3.105c-1.834-1.87-2.113-5.727-2.154-6.623   H94.2c1.563,0,2.829-1.313,2.829-2.877v-0.314v-5.012v-0.189V14.933C97.027,13.368,95.76,12.179,94.195,12.179z M49.528,74.676   c-1.021,0-1.847-0.824-1.847-1.846s0.826-1.848,1.847-1.848c1.02,0,1.847,0.826,1.847,1.848   C51.376,73.852,50.548,74.676,49.528,74.676z M93.023,65.02h-0.002v0.002H93.02H6.036V65.02V15.996H93.02h0.002h0.002V65.02z"></path><rect x="93.021" y="15.996" fill="currentColor" width="0.002" height="49.023"></rect></g></svg></g><path fill="#000000" fill-rule="nonzero" d="M7.68 0Q10.85 0 12.89 1.28Q14.93 2.57 14.98 5.09L14.98 5.09L14.98 5.38L10.01 5.38L10.01 5.28Q10.01 4.56 9.48 4.08Q8.95 3.60 7.87 3.60L7.87 3.60Q6.82 3.60 6.25 3.91Q5.69 4.22 5.69 4.68L5.69 4.68Q5.69 5.33 6.46 5.64Q7.22 5.95 8.93 6.29L8.93 6.29Q10.92 6.70 12.20 7.14Q13.49 7.58 14.45 8.59Q15.41 9.60 15.43 11.33L15.43 11.33Q15.43 14.26 13.45 15.67Q11.47 17.09 8.16 17.09L8.16 17.09Q4.30 17.09 2.15 15.79Q0 14.50 0 11.21L0 11.21L5.02 11.21Q5.02 12.46 5.66 12.88Q6.31 13.30 7.68 13.30L7.68 13.30Q8.69 13.30 9.35 13.08Q10.01 12.86 10.01 12.19L10.01 12.19Q10.01 11.59 9.28 11.29Q8.54 10.99 6.89 10.66L6.89 10.66Q4.87 10.22 3.55 9.76Q2.23 9.29 1.25 8.21Q0.26 7.13 0.26 5.28L0.26 5.28Q0.26 2.57 2.36 1.28Q4.46 0 7.68 0L7.68 0ZM34.30 16.80L29.64 16.80L27.67 9.74L27.58 9.74L25.58 16.80L20.93 16.80L16.30 4.13L21.43 4.13L23.35 11.62L23.52 11.62L25.51 4.13L30.26 4.13L32.18 11.62L32.35 11.62L34.30 4.13L38.95 4.13L34.30 16.80ZM46.39 3.84Q49.30 3.84 51.12 4.81Q52.94 5.78 52.94 7.97L52.94 7.97L52.94 12.91Q52.94 13.32 53.14 13.58Q53.33 13.85 53.71 13.85L53.71 13.85L54.58 13.85L54.58 16.61Q54.50 16.66 54.20 16.76Q53.90 16.87 53.35 16.98Q52.80 17.09 52.08 17.09L52.08 17.09Q50.69 17.09 49.79 16.67Q48.89 16.25 48.55 15.50L48.55 15.50Q47.64 16.22 46.51 16.66Q45.38 17.09 43.87 17.09L43.87 17.09Q39.41 17.09 39.41 13.54L39.41 13.54Q39.41 11.69 40.40 10.72Q41.40 9.74 43.27 9.38Q45.14 9.02 48.17 9.02L48.17 9.02L48.17 8.40Q48.17 7.66 47.65 7.27Q47.14 6.89 46.32 6.89L46.32 6.89Q45.58 6.89 45.04 7.15Q44.50 7.42 44.50 7.99L44.50 7.99L44.50 8.09L39.79 8.09Q39.77 7.97 39.77 7.75L39.77 7.75Q39.77 5.95 41.48 4.90Q43.20 3.84 46.39 3.84L46.39 3.84ZM48.17 11.28Q46.13 11.28 45.16 11.72Q44.18 12.17 44.18 12.91L44.18 12.91Q44.18 14.11 45.82 14.11L45.82 14.11Q46.75 14.11 47.46 13.61Q48.17 13.10 48.17 12.36L48.17 12.36L48.17 11.28ZM70.78 1.75Q70.78 3.22 70.04 4.01Q69.31 4.80 67.85 5.18L67.85 5.18Q68.54 5.71 68.94 6.42Q69.34 7.13 69.34 7.92L69.34 7.92Q69.34 9.94 67.81 10.97Q66.29 12 64.01 12L64.01 12L62.18 12Q60.67 12 60.67 12.70L60.67 12.70Q60.67 13.03 61.01 13.24Q61.34 13.44 62.18 13.44L62.18 13.44L66.50 13.44Q68.62 13.44 69.70 14.54Q70.78 15.65 70.78 17.50L70.78 17.50Q70.78 18.86 70.06 19.85Q69.34 20.83 68.11 21.34Q66.89 21.84 65.45 21.84L65.45 21.84L58.39 21.84Q57.53 21.84 56.80 21.43Q56.06 21.02 55.63 20.32Q55.20 19.61 55.20 18.74L55.20 18.74Q55.20 17.81 55.78 17.05Q56.35 16.30 57.22 15.91L57.22 15.91Q56.64 15.50 56.30 14.93Q55.97 14.35 55.97 13.68L55.97 13.68Q55.97 12.74 56.66 11.99Q57.36 11.23 58.39 10.97L58.39 10.97Q57.46 10.37 56.90 9.59Q56.35 8.81 56.35 7.94L56.35 7.94Q56.35 5.74 58.14 4.79Q59.93 3.84 62.88 3.84L62.88 3.84Q64.18 3.84 64.97 3.98L64.97 3.98Q66.14 3.24 66.49 2.63Q66.84 2.02 66.84 1.75L66.84 1.75L70.78 1.75ZM62.83 6.34Q62.04 6.34 61.54 6.74Q61.03 7.15 61.03 7.92L61.03 7.92Q61.03 8.71 61.50 9.11Q61.97 9.50 62.83 9.50L62.83 9.50Q63.70 9.50 64.19 9.11Q64.68 8.71 64.68 7.92L64.68 7.92Q64.68 7.13 64.19 6.73Q63.70 6.34 62.83 6.34L62.83 6.34ZM60.98 16.80Q60.43 16.80 60.08 17.10Q59.74 17.40 59.74 17.95L59.74 17.95Q59.74 18.50 60.10 18.84Q60.46 19.18 60.98 19.18L60.98 19.18L64.73 19.18Q65.26 19.18 65.63 18.85Q66 18.53 66 17.98L66 17.98Q66 17.42 65.64 17.11Q65.28 16.80 64.73 16.80L64.73 16.80L60.98 16.80ZM87.02 1.75Q87.02 3.22 86.29 4.01Q85.56 4.80 84.10 5.18L84.10 5.18Q84.79 5.71 85.19 6.42Q85.58 7.13 85.58 7.92L85.58 7.92Q85.58 9.94 84.06 10.97Q82.54 12 80.26 12L80.26 12L78.43 12Q76.92 12 76.92 12.70L76.92 12.70Q76.92 13.03 77.26 13.24Q77.59 13.44 78.43 13.44L78.43 13.44L82.75 13.44Q84.86 13.44 85.94 14.54Q87.02 15.65 87.02 17.50L87.02 17.50Q87.02 18.86 86.30 19.85Q85.58 20.83 84.36 21.34Q83.14 21.84 81.70 21.84L81.70 21.84L74.64 21.84Q73.78 21.84 73.04 21.43Q72.31 21.02 71.88 20.32Q71.45 19.61 71.45 18.74L71.45 18.74Q71.45 17.81 72.02 17.05Q72.60 16.30 73.46 15.91L73.46 15.91Q72.89 15.50 72.55 14.93Q72.22 14.35 72.22 13.68L72.22 13.68Q72.22 12.74 72.91 11.99Q73.61 11.23 74.64 10.97L74.64 10.97Q73.70 10.37 73.15 9.59Q72.60 8.81 72.60 7.94L72.60 7.94Q72.60 5.74 74.39 4.79Q76.18 3.84 79.13 3.84L79.13 3.84Q80.42 3.84 81.22 3.98L81.22 3.98Q82.39 3.24 82.74 2.63Q83.09 2.02 83.09 1.75L83.09 1.75L87.02 1.75ZM79.08 6.34Q78.29 6.34 77.78 6.74Q77.28 7.15 77.28 7.92L77.28 7.92Q77.28 8.71 77.75 9.11Q78.22 9.50 79.08 9.50L79.08 9.50Q79.94 9.50 80.44 9.11Q80.93 8.71 80.93 7.92L80.93 7.92Q80.93 7.13 80.44 6.73Q79.94 6.34 79.08 6.34L79.08 6.34ZM77.23 16.80Q76.68 16.80 76.33 17.10Q75.98 17.40 75.98 17.95L75.98 17.95Q75.98 18.50 76.34 18.84Q76.70 19.18 77.23 19.18L77.23 19.18L80.98 19.18Q81.50 19.18 81.88 18.85Q82.25 18.53 82.25 17.98L82.25 17.98Q82.25 17.42 81.89 17.11Q81.53 16.80 80.98 16.80L80.98 16.80L77.23 16.80ZM97.90 16.42Q96.91 19.08 95.48 20.46Q94.06 21.84 91.49 21.84L91.49 21.84Q89.93 21.84 88.73 21.41L88.73 21.41L88.73 18.55L90.65 18.55Q92.45 18.55 92.78 16.80L92.78 16.80L87.74 4.13L92.88 4.13L95.30 12.55L95.47 12.55L97.70 4.13L102.41 4.13L97.90 16.42Z" transform="translate(0, 52)"></path></svg>